<?xml version="1.0" encoding="UTF-8" standalone="no"?>
<!-- Generator: Adobe Illustrator 27.1.1, SVG Export Plug-In . SVG Version: 6.00 Build 0)  -->
<svg xmlns:inkscape="http://www.inkscape.org/namespaces/inkscape" xmlns:sodipodi="http://sodipodi.sourceforge.net/DTD/sodipodi-0.dtd" xmlns="http://www.w3.org/2000/svg" xmlns:svg="http://www.w3.org/2000/svg" version="1.1" x="0px" y="0px" viewBox="0 0 495.42003 190.4" xml:space="preserve" id="svg95" sodipodi:docname="Logo1.svg" inkscape:version="1.2.2 (732a01da63, 2022-12-09)" width="495.42001" height="190.39999"><defs id="defs99"></defs>
<style type="text/css" id="style2">
	.st0{display:none;}
	.st1{fill:#006AB2;stroke:#006AB2;stroke-width:3;stroke-miterlimit:10;}
	.st2{fill:#FFFFFF;stroke:#006AB2;stroke-width:3;stroke-miterlimit:10;}
	.st3{fill:#006AB2;}
	.st4{fill:#ED362B;}
	.st5{fill:url(#XMLID_00000031209551185192322910000001509447849177978000_);}
	.st6{fill:url(#XMLID_00000111150441255572409150000005239569680215634828_);}
	.st7{fill:url(#XMLID_00000152953865859293975570000001631901703296387500_);}
	.st8{fill:url(#XMLID_00000152956708038119164710000004754952551423406009_);}
	.st9{fill:url(#XMLID_00000141455219670827430190000006576254221046048176_);}
	.st10{fill:url(#XMLID_00000008139654576214508000000010889275573568296350_);}
	.st11{fill:url(#XMLID_00000174570777375459689020000013130741819029055408_);}
	.st12{fill:url(#XMLID_00000003093093649268465330000015263983035015383963_);}
	.st13{fill:url(#XMLID_00000096747271310488489670000010154132062050174593_);}
	.st14{fill:url(#XMLID_00000174560309924153814130000001676551545188193437_);}
	.st15{fill:url(#XMLID_00000105395906057032578150000003158494871759615415_);}
	.st16{fill:url(#XMLID_00000067213924361773836320000015362902892546284432_);}
	.st17{fill:url(#XMLID_00000054945749582321311280000005029303662628980406_);}
	.st18{fill:url(#XMLID_00000042733075277863342500000008383545077143795895_);}
	.st19{fill:url(#XMLID_00000047044128126577998700000006766559613768219839_);}
	.st20{fill:#EF3E35;}
	.st21{fill:url(#XMLID_00000113312158806286431480000003231854972575544749_);}
	.st22{fill:url(#XMLID_00000066481353793527647640000009602657880425482112_);}
	.st23{fill:url(#XMLID_00000003790373388200034860000014195814402691917975_);}
	.st24{fill:url(#XMLID_00000083771749866889116570000000427624314726852530_);}
	.st25{fill:url(#XMLID_00000114064301887232298790000004722788225333712012_);}
	.st26{fill:url(#XMLID_00000114046447516004857820000017016887830884979593_);}
	.st27{fill:url(#XMLID_00000095330608265309255930000015324797395893738157_);}
	.st28{fill:url(#XMLID_00000135652027409657770320000014649956331163051450_);}
	.st29{fill:url(#XMLID_00000066488847886067512610000015544736158933488291_);}
	.st30{fill:none;stroke:#006AB2;stroke-miterlimit:10;}
	.st31{fill:url(#XMLID_00000033355449531923054840000007171455704176880784_);}
	.st32{fill:url(#XMLID_00000057829191972064532370000012536146508923365785_);}
	.st33{fill:url(#XMLID_00000005257090370451753620000002324754647637316014_);}
	.st34{fill:url(#XMLID_00000183234844121225933120000009254500768783114911_);}
	.st35{fill:url(#XMLID_00000028326499039523111110000008312797938004962472_);}
	.st36{fill:url(#XMLID_00000011002900158699533230000007568609273368930448_);}
	.st37{fill:url(#XMLID_00000006698034810507911220000013308136558345859767_);}
	.st38{fill:url(#XMLID_00000008149534465930011260000010325133726280064694_);}
	.st39{fill:url(#XMLID_00000052087547287620905830000009846910994252912556_);}
</style>
<g id="Laag_1" class="st0">
</g>
<g id="Laag_2">
	<path id="XMLID_402_" class="st4" d="m 50.013739,45.967729 c -3.36,-3.66 -6.86,-3.82 -9.24,-2.71 -2.38,1.11 -4.2,5.35 -4.93,7.77 -0.45,1.51 -1.01,1.8 -1.35,1.8 h -0.34 c -0.35,0 -0.9,-0.28 -1.35,-1.8 -0.72,-2.42 -2.54,-6.66 -4.93,-7.77 -2.38,-1.11 -5.87,-0.95 -9.24,2.71 -3.36,3.66 -3.71,10.02 -0.33,15.37 3.38,5.34 7.18,8.59 13.79,9.51 1.29,0.14 1.92,0.17 2.22,0.16 0.3,0.01 0.93,-0.02 2.22,-0.16 6.61,-0.92 10.41,-4.16 13.79,-9.51 3.4,-5.35 3.06,-11.71 -0.31,-15.37 z"></path>
	
		<linearGradient id="XMLID_00000123407547833475125190000002492235863300503694_" gradientUnits="userSpaceOnUse" x1="62.2696" y1="205.0029" x2="111.7899" y2="153.2832" gradientTransform="translate(-49.01626,-17.192271)">
		<stop offset="0" style="stop-color:#B12025" id="stop6"></stop>
		<stop offset="1" style="stop-color:#5D0912" id="stop8"></stop>
	</linearGradient>
	<path id="XMLID_403_" style="fill:url(#XMLID_00000123407547833475125190000002492235863300503694_)" d="m 63.723739,128.59773 c 0,0 0.03,15.54 -9.31,29.23 -4.81,7.05 -10.51,13.55 -17.2,18.86 -6.76,5.36 -14.23,8.71 -22.16,11.9 -0.31,0.13 -4.16,1.39 -4.16,1.67 v -14.89 c 0,0 15.27,-3.91 25.24,-10.85 9.9,-6.89 21.03,-15.98 24.87,-27.94 1.07,-3.34 1.35,-6.81 1.08,-10.29 -0.07,-0.93 -0.19,-1.86 -0.37,-2.78 z"></path>
	
		<linearGradient id="XMLID_00000008839385954470917430000000204748258424930212_" gradientUnits="userSpaceOnUse" x1="51.854099" y1="112.6327" x2="109.5348" y2="131.38451" gradientTransform="translate(-49.01626,-17.192271)">
		<stop offset="0.0753" style="stop-color:#ED442B" id="stop12"></stop>
		<stop offset="1" style="stop-color:#CF2F25" id="stop14"></stop>
	</linearGradient>
	<path id="XMLID_404_" style="fill:url(#XMLID_00000008839385954470917430000000204748258424930212_)" d="m 62.933739,136.50773 c 0,0 0.45,-5.96 -0.9,-10.72 -2.03,-7.15 -6.22,-18.94 -20.55,-23.54 -16.28,-7.570001 -40.49999974,0 -40.49999974,0 0,0 0,-15.130001 0,-15.140001 0,-0.98 13.34999974,-2.65 14.32999974,-2.77 12.49,-1.55 24.52,-0.46 35.24,6.82 7.78,5.28 11.79,12.670001 13.03,21.910001 0.17,1.25 0.29,2.51 0.32,3.76 0.34,14.71 -0.97,19.68 -0.97,19.68 z"></path>
	
		<linearGradient id="XMLID_00000036209916630449843760000010064011101361435544_" gradientUnits="userSpaceOnUse" x1="92.229401" y1="168.6967" x2="175.9239" y2="27.2598" gradientTransform="translate(-49.01626,-17.192271)">
		<stop offset="0" style="stop-color:#868B68" id="stop18"></stop>
		<stop offset="0.4558" style="stop-color:#62B744" id="stop20"></stop>
		<stop offset="0.6425" style="stop-color:#899A68" id="stop22"></stop>
		<stop offset="0.7009" style="stop-color:#6C4036" id="stop24"></stop>
		<stop offset="0.8763" style="stop-color:#CF2F25" id="stop26"></stop>
		<stop offset="1" style="stop-color:#ED362B" id="stop28"></stop>
	</linearGradient>
	<path id="XMLID_405_" style="fill:url(#XMLID_00000036209916630449843760000010064011101361435544_)" d="m 80.663739,160.60773 c 4.16,-6.71 8.27,-13.45 12.27,-20.25 6,-10.17 14.270001,-23.12 9.810001,-35.39 -3.530001,-9.720001 -12.240001,-10.980001 -18.670001,-11.610001 -6.43,-0.63 -18.55,0.38 -23.72,-5.43 -5.17,-5.81 -6.18,-12.37 -2.02,-23.09 3.33,-8.58 8,-16.56 12.57,-24.5 3.86,-6.71 8.12,-14.23 9.97,-21.81 0.08,-0.31 0.15,-0.63 0.2,-0.95 0.76,-4.67 0.22,-8.2599996 0.22,-8.2599996 l 7.32,-8.32999996 c 0,0 0.46,11.05999956 -3.58,18.63999956 -4.75,8.92 -9.63,17.77 -14.66,26.53 -4.42,7.69 -8.25,16.08 -6.08,25.12 0.07,0.29 0.15,0.59 0.23,0.88 2.6,9.38 13.63,10.3 21.76,9.95 4.89,-0.21 10.38,-0.78 14.890001,1.56 4.44,2.31 7.11,6.9 8.78,11.46 4.53,12.080001 -2.05,25.630001 -8.51,35.690001 -2.790001,4.35 -5.680001,8.64 -8.590001,12.91 -12.06,17.67 -12.19,16.88 -12.19,16.88 z"></path>
	<g id="g92" transform="matrix(1.0838869,0,0,0.99326668,-71.001055,-34.360315)">
		<path class="st3" d="m 192.47,119.3 c 0,-0.75 -0.27,-1.33 -0.8,-1.74 -0.53,-0.4 -1.49,-0.83 -2.87,-1.28 -1.38,-0.45 -2.48,-0.89 -3.29,-1.32 -2.2,-1.19 -3.3,-2.79 -3.3,-4.8 0,-1.05 0.29,-1.98 0.88,-2.8 0.59,-0.82 1.44,-1.46 2.54,-1.92 1.1,-0.46 2.34,-0.69 3.72,-0.69 1.38,0 2.62,0.25 3.7,0.75 1.08,0.5 1.92,1.21 2.52,2.12 0.6,0.91 0.9,1.95 0.9,3.11 h -3.99 c 0,-0.89 -0.28,-1.58 -0.84,-2.07 -0.56,-0.49 -1.34,-0.74 -2.36,-0.74 -0.98,0 -1.73,0.21 -2.28,0.62 -0.55,0.41 -0.81,0.96 -0.81,1.63 0,0.63 0.32,1.16 0.95,1.58 0.63,0.42 1.57,0.83 2.8,1.2 2.27,0.68 3.93,1.53 4.96,2.54 1.04,1.01 1.56,2.27 1.56,3.78 0,1.68 -0.63,2.99 -1.9,3.95 -1.27,0.95 -2.98,1.43 -5.12,1.43 -1.49,0 -2.85,-0.27 -4.07,-0.82 -1.22,-0.55 -2.16,-1.29 -2.8,-2.24 -0.64,-0.95 -0.96,-2.05 -0.96,-3.3 h 4 c 0,2.14 1.28,3.21 3.83,3.21 0.95,0 1.69,-0.19 2.22,-0.58 0.54,-0.39 0.81,-0.93 0.81,-1.62 z" id="path32"></path>
		<path class="st3" d="m 203.53,106.45 v 3.54 h 2.46 v 2.82 h -2.46 V 120 c 0,0.53 0.1,0.91 0.31,1.14 0.2,0.23 0.59,0.35 1.17,0.35 0.43,0 0.8,-0.03 1.13,-0.09 v 2.91 c -0.75,0.23 -1.53,0.35 -2.33,0.35 -2.7,0 -4.07,-1.36 -4.12,-4.09 v -7.76 h -2.1 v -2.82 h 2.1 v -3.54 z" id="path34"></path>
		<path class="st3" d="m 214.76,124.65 c -2.11,0 -3.83,-0.65 -5.16,-1.94 -1.33,-1.29 -1.99,-3.02 -1.99,-5.18 v -0.37 c 0,-1.45 0.28,-2.74 0.84,-3.88 0.56,-1.14 1.35,-2.02 2.38,-2.64 1.02,-0.62 2.19,-0.92 3.51,-0.92 1.97,0 3.52,0.62 4.65,1.86 1.13,1.24 1.7,3 1.7,5.28 v 1.57 h -9.17 c 0.12,0.94 0.5,1.69 1.12,2.26 0.63,0.57 1.42,0.85 2.38,0.85 1.48,0 2.64,-0.54 3.47,-1.61 l 1.89,2.12 c -0.58,0.82 -1.36,1.45 -2.34,1.91 -0.99,0.46 -2.08,0.69 -3.28,0.69 z m -0.44,-11.83 c -0.76,0 -1.38,0.26 -1.86,0.78 -0.47,0.52 -0.78,1.26 -0.91,2.22 h 5.35 v -0.31 c -0.02,-0.86 -0.25,-1.52 -0.69,-1.98 -0.44,-0.48 -1.07,-0.71 -1.89,-0.71 z" id="path36"></path>
		<path class="st3" d="m 231.49,122.92 c -0.95,1.15 -2.26,1.73 -3.94,1.73 -1.54,0 -2.72,-0.44 -3.53,-1.33 -0.81,-0.89 -1.23,-2.19 -1.24,-3.9 v -9.44 h 3.85 v 9.31 c 0,1.5 0.68,2.25 2.05,2.25 1.3,0 2.2,-0.45 2.69,-1.36 v -10.21 h 3.86 v 14.4 h -3.62 z" id="path38"></path>
		<path class="st3" d="m 241.66,109.99 0.12,1.66 c 1.03,-1.29 2.41,-1.93 4.14,-1.93 1.53,0 2.66,0.45 3.41,1.34 0.75,0.89 1.13,2.24 1.14,4.02 v 9.3 h -3.85 v -9.21 c 0,-0.82 -0.18,-1.41 -0.53,-1.78 -0.35,-0.37 -0.94,-0.55 -1.77,-0.55 -1.08,0 -1.89,0.46 -2.44,1.38 v 10.15 h -3.85 v -14.4 h 3.63 z" id="path40"></path>
		<path class="st3" d="m 266.34,117.32 c 0,2.22 -0.5,3.99 -1.51,5.33 -1.01,1.34 -2.37,2 -4.08,2 -1.46,0 -2.63,-0.51 -3.53,-1.52 v 6.79 h -3.85 v -19.94 h 3.57 l 0.13,1.41 c 0.93,-1.12 2.15,-1.68 3.65,-1.68 1.77,0 3.15,0.66 4.14,1.97 0.98,1.31 1.48,3.12 1.48,5.43 z m -3.85,-0.28 c 0,-1.34 -0.24,-2.37 -0.71,-3.1 -0.47,-0.73 -1.16,-1.09 -2.07,-1.09 -1.21,0 -2.04,0.46 -2.49,1.38 v 5.9 c 0.47,0.95 1.31,1.42 2.52,1.42 1.84,0 2.75,-1.5 2.75,-4.51 z" id="path42"></path>
		<path class="st3" d="m 277.35,122.92 c -0.95,1.15 -2.26,1.73 -3.94,1.73 -1.54,0 -2.72,-0.44 -3.53,-1.33 -0.81,-0.89 -1.23,-2.19 -1.25,-3.9 v -9.44 h 3.85 v 9.31 c 0,1.5 0.68,2.25 2.05,2.25 1.3,0 2.2,-0.45 2.69,-1.36 v -10.21 h 3.86 v 14.4 h -3.62 z" id="path44"></path>
		<path class="st3" d="m 287.51,109.99 0.12,1.66 c 1.03,-1.29 2.41,-1.93 4.14,-1.93 1.53,0 2.66,0.45 3.41,1.34 0.75,0.89 1.13,2.24 1.14,4.02 v 9.3 h -3.85 v -9.21 c 0,-0.82 -0.18,-1.41 -0.53,-1.78 -0.36,-0.37 -0.95,-0.55 -1.77,-0.55 -1.08,0 -1.89,0.46 -2.43,1.38 v 10.15 h -3.85 v -14.4 h 3.62 z" id="path46"></path>
		<path class="st3" d="m 303.84,106.45 v 3.54 h 2.46 v 2.82 h -2.46 V 120 c 0,0.53 0.1,0.91 0.3,1.14 0.21,0.23 0.59,0.35 1.17,0.35 0.43,0 0.8,-0.03 1.13,-0.09 v 2.91 c -0.75,0.23 -1.53,0.35 -2.33,0.35 -2.7,0 -4.07,-1.36 -4.13,-4.09 v -7.76 h -2.1 v -2.82 h 2.1 v -3.54 z" id="path48"></path>
		<path class="st3" d="m 319.72,121.18 h 9.77 v 3.21 h -14.76 v -2.34 l 9.58,-13.8 h -9.57 v -3.23 h 14.53 v 2.29 z" id="path50"></path>
		<path class="st3" d="m 330.33,117.05 c 0,-1.43 0.28,-2.7 0.83,-3.82 0.55,-1.12 1.34,-1.98 2.38,-2.59 1.03,-0.61 2.23,-0.92 3.6,-0.92 1.94,0 3.53,0.59 4.76,1.78 1.23,1.19 1.91,2.8 2.06,4.84 l 0.03,0.98 c 0,2.21 -0.62,3.98 -1.85,5.32 -1.23,1.34 -2.89,2 -4.96,2 -2.07,0 -3.73,-0.67 -4.97,-2 -1.24,-1.33 -1.86,-3.14 -1.86,-5.43 v -0.16 z m 3.85,0.28 c 0,1.37 0.26,2.42 0.77,3.14 0.51,0.72 1.25,1.09 2.21,1.09 0.93,0 1.66,-0.36 2.18,-1.07 0.52,-0.72 0.79,-1.86 0.79,-3.43 0,-1.34 -0.26,-2.38 -0.79,-3.12 -0.53,-0.74 -1.26,-1.11 -2.21,-1.11 -0.94,0 -1.67,0.37 -2.18,1.1 -0.52,0.72 -0.77,1.86 -0.77,3.4 z" id="path52"></path>
		<path class="st3" d="m 354.43,113.59 c -0.52,-0.07 -0.99,-0.11 -1.38,-0.11 -1.46,0 -2.41,0.49 -2.86,1.48 v 9.42 h -3.85 v -14.4 h 3.63 l 0.11,1.72 c 0.77,-1.32 1.84,-1.98 3.21,-1.98 0.43,0 0.83,0.06 1.2,0.17 z" id="path54"></path>
		<path class="st3" d="m 355.72,117.08 c 0,-2.21 0.53,-3.99 1.58,-5.34 1.05,-1.35 2.47,-2.02 4.25,-2.02 1.58,0 2.81,0.54 3.69,1.62 l 0.16,-1.36 h 3.49 v 13.92 c 0,1.26 -0.29,2.36 -0.86,3.29 -0.57,0.93 -1.38,1.64 -2.42,2.13 -1.04,0.49 -2.25,0.73 -3.65,0.73 -1.06,0 -2.08,-0.21 -3.09,-0.63 -1,-0.42 -1.76,-0.96 -2.28,-1.63 l 1.7,-2.34 c 0.96,1.07 2.12,1.61 3.49,1.61 1.02,0 1.81,-0.27 2.38,-0.82 0.57,-0.55 0.85,-1.32 0.85,-2.32 v -0.77 c -0.89,1 -2.05,1.5 -3.5,1.5 -1.73,0 -3.13,-0.68 -4.2,-2.03 -1.07,-1.35 -1.6,-3.15 -1.6,-5.38 v -0.16 z m 3.85,0.29 c 0,1.31 0.26,2.33 0.79,3.07 0.52,0.74 1.24,1.11 2.16,1.11 1.17,0 2.01,-0.44 2.51,-1.32 v -6.06 c -0.51,-0.88 -1.34,-1.32 -2.49,-1.32 -0.92,0 -1.65,0.38 -2.18,1.13 -0.53,0.76 -0.79,1.88 -0.79,3.39 z" id="path56"></path>
		<path class="st3" d="m 378.09,119.17 c 0,-0.9 0.25,-1.73 0.75,-2.49 0.5,-0.76 1.42,-1.61 2.76,-2.54 -0.58,-0.77 -1.03,-1.5 -1.36,-2.18 -0.33,-0.68 -0.49,-1.39 -0.49,-2.12 0,-1.51 0.48,-2.73 1.43,-3.68 0.95,-0.94 2.24,-1.42 3.85,-1.42 1.45,0 2.63,0.43 3.56,1.29 0.93,0.86 1.39,1.93 1.39,3.22 0,1.54 -0.78,2.91 -2.34,4.09 l -1.49,1.08 3.34,3.89 c 0.52,-1.03 0.79,-2.16 0.79,-3.41 h 3.27 c 0,2.52 -0.58,4.56 -1.74,6.12 l 2.9,3.37 h -4.37 l -1,-1.14 c -1.43,0.94 -3.07,1.41 -4.92,1.41 -1.92,0 -3.45,-0.5 -4.6,-1.51 -1.15,-1.01 -1.73,-2.34 -1.73,-3.98 z m 6.52,2.38 c 0.92,0 1.8,-0.26 2.62,-0.77 l -3.82,-4.41 -0.28,0.2 c -0.79,0.67 -1.18,1.46 -1.18,2.38 0,0.77 0.25,1.4 0.74,1.88 0.49,0.48 1.13,0.72 1.92,0.72 z m -1.41,-11.76 c 0,0.67 0.39,1.5 1.17,2.52 l 1.03,-0.68 c 0.52,-0.34 0.88,-0.67 1.08,-0.98 0.2,-0.32 0.3,-0.7 0.3,-1.14 0,-0.44 -0.16,-0.83 -0.49,-1.16 -0.33,-0.33 -0.75,-0.49 -1.26,-0.49 -0.55,0 -0.99,0.18 -1.32,0.53 -0.34,0.34 -0.51,0.81 -0.51,1.4 z" id="path58"></path>
		<path class="st3" d="m 418.92,115.14 c 0,1.91 -0.34,3.58 -1.01,5.02 -0.67,1.44 -1.64,2.55 -2.89,3.33 -1.26,0.78 -2.7,1.17 -4.32,1.17 -1.61,0 -3.04,-0.39 -4.3,-1.16 -1.26,-0.77 -2.24,-1.87 -2.93,-3.31 -0.69,-1.43 -1.04,-3.08 -1.05,-4.94 v -0.96 c 0,-1.91 0.34,-3.59 1.03,-5.04 0.69,-1.45 1.66,-2.56 2.91,-3.34 1.26,-0.78 2.69,-1.16 4.31,-1.16 1.61,0 3.05,0.39 4.3,1.16 1.25,0.78 2.23,1.89 2.91,3.34 0.69,1.45 1.03,3.12 1.03,5.02 v 0.87 z m -4.04,-0.88 c 0,-2.03 -0.36,-3.58 -1.09,-4.63 -0.73,-1.05 -1.77,-1.58 -3.11,-1.58 -1.34,0 -2.37,0.52 -3.1,1.56 -0.73,1.04 -1.1,2.57 -1.11,4.58 v 0.94 c 0,1.98 0.36,3.51 1.09,4.6 0.73,1.09 1.77,1.64 3.14,1.64 1.34,0 2.37,-0.53 3.09,-1.58 0.72,-1.05 1.08,-2.58 1.09,-4.6 z" id="path60"></path>
		<path class="st3" d="m 424.56,109.99 0.12,1.66 c 1.03,-1.29 2.41,-1.93 4.14,-1.93 1.53,0 2.66,0.45 3.41,1.34 0.75,0.9 1.13,2.24 1.14,4.02 v 9.3 h -3.85 v -9.21 c 0,-0.82 -0.18,-1.41 -0.53,-1.78 -0.35,-0.37 -0.94,-0.55 -1.77,-0.55 -1.08,0 -1.89,0.46 -2.44,1.38 v 10.15 h -3.85 v -14.4 h 3.63 z" id="path62"></path>
		<path class="st3" d="m 435.69,117.08 c 0,-2.24 0.5,-4.03 1.51,-5.36 1.01,-1.33 2.38,-2 4.13,-2 1.4,0 2.56,0.52 3.47,1.57 v -7.35 h 3.86 v 20.44 h -3.47 L 445,122.85 c -0.96,1.2 -2.19,1.8 -3.7,1.8 -1.69,0 -3.05,-0.67 -4.08,-2 -1.02,-1.34 -1.53,-3.19 -1.53,-5.57 z m 3.84,0.29 c 0,1.35 0.23,2.39 0.71,3.11 0.47,0.72 1.15,1.08 2.05,1.08 1.19,0 2.03,-0.5 2.52,-1.51 v -5.69 c -0.48,-1 -1.31,-1.51 -2.49,-1.51 -1.86,0 -2.79,1.5 -2.79,4.52 z" id="path64"></path>
		<path class="st3" d="m 458.27,124.65 c -2.11,0 -3.83,-0.65 -5.16,-1.94 -1.33,-1.29 -1.99,-3.02 -1.99,-5.18 v -0.37 c 0,-1.45 0.28,-2.74 0.84,-3.88 0.56,-1.14 1.35,-2.02 2.38,-2.64 1.02,-0.62 2.19,-0.92 3.51,-0.92 1.97,0 3.52,0.62 4.65,1.86 1.13,1.24 1.7,3 1.7,5.28 v 1.57 h -9.17 c 0.12,0.94 0.5,1.69 1.12,2.26 0.63,0.57 1.42,0.85 2.38,0.85 1.48,0 2.64,-0.54 3.47,-1.61 l 1.89,2.12 c -0.58,0.82 -1.36,1.45 -2.34,1.91 -0.99,0.46 -2.08,0.69 -3.28,0.69 z m -0.44,-11.83 c -0.76,0 -1.38,0.26 -1.86,0.78 -0.47,0.52 -0.78,1.26 -0.91,2.22 h 5.35 v -0.31 c -0.02,-0.86 -0.25,-1.52 -0.69,-1.98 -0.44,-0.48 -1.07,-0.71 -1.89,-0.71 z" id="path66"></path>
		<path class="st3" d="m 474.47,113.59 c -0.52,-0.07 -0.99,-0.11 -1.38,-0.11 -1.46,0 -2.41,0.49 -2.86,1.48 v 9.42 h -3.85 v -14.4 h 3.63 l 0.11,1.72 c 0.77,-1.32 1.84,-1.98 3.21,-1.98 0.43,0 0.83,0.06 1.2,0.17 z" id="path68"></path>
		<path class="st3" d="m 489.06,119.15 1.89,-9.17 h 3.71 l -3.67,14.4 h -3.22 l -2.73,-9.06 -2.73,9.06 h -3.21 l -3.67,-14.4 h 3.71 l 1.88,9.16 2.63,-9.16 h 2.78 z" id="path70"></path>
		<path class="st3" d="m 496.54,106.26 c 0,-0.58 0.19,-1.05 0.58,-1.42 0.39,-0.37 0.91,-0.56 1.58,-0.56 0.66,0 1.18,0.19 1.57,0.56 0.39,0.37 0.58,0.85 0.58,1.42 0,0.59 -0.2,1.06 -0.59,1.44 -0.39,0.38 -0.92,0.56 -1.56,0.56 -0.64,0 -1.17,-0.19 -1.56,-0.56 -0.4,-0.38 -0.6,-0.85 -0.6,-1.44 z m 4.09,18.12 h -3.86 v -14.4 h 3.86 z" id="path72"></path>
		<path class="st3" d="m 507.87,109.99 v 15.18 c 0,1.59 -0.42,2.82 -1.26,3.71 -0.84,0.88 -2.06,1.32 -3.65,1.32 -0.67,0 -1.3,-0.08 -1.9,-0.23 v -3.05 c 0.46,0.08 0.87,0.12 1.21,0.12 1.16,0 1.74,-0.62 1.74,-1.85 v -15.21 h 3.86 z m -4.17,-3.73 c 0,-0.58 0.19,-1.05 0.58,-1.42 0.39,-0.37 0.91,-0.56 1.58,-0.56 0.67,0 1.19,0.19 1.58,0.56 0.39,0.37 0.58,0.85 0.58,1.42 0,0.59 -0.2,1.06 -0.59,1.44 -0.39,0.38 -0.92,0.56 -1.56,0.56 -0.64,0 -1.17,-0.19 -1.56,-0.56 -0.41,-0.38 -0.61,-0.85 -0.61,-1.44 z" id="path74"></path>
		<path class="st3" d="m 518.67,120.41 c 0,-0.47 -0.23,-0.84 -0.7,-1.11 -0.47,-0.27 -1.21,-0.51 -2.24,-0.73 -3.42,-0.72 -5.14,-2.17 -5.14,-4.36 0,-1.28 0.53,-2.34 1.59,-3.2 1.06,-0.86 2.45,-1.28 4.16,-1.28 1.83,0 3.29,0.43 4.38,1.29 1.09,0.86 1.64,1.98 1.64,3.35 h -3.85 c 0,-0.55 -0.18,-1 -0.53,-1.36 -0.35,-0.36 -0.91,-0.54 -1.66,-0.54 -0.65,0 -1.15,0.15 -1.5,0.44 -0.36,0.29 -0.53,0.67 -0.53,1.12 0,0.43 0.2,0.77 0.61,1.03 0.4,0.26 1.08,0.49 2.04,0.68 0.96,0.19 1.77,0.41 2.42,0.65 2.03,0.75 3.05,2.04 3.05,3.87 0,1.31 -0.56,2.38 -1.69,3.19 -1.13,0.81 -2.58,1.22 -4.37,1.22 -1.21,0 -2.28,-0.22 -3.21,-0.65 -0.94,-0.43 -1.67,-1.02 -2.2,-1.77 -0.53,-0.75 -0.8,-1.56 -0.8,-2.43 h 3.65 c 0.04,0.68 0.29,1.21 0.76,1.57 0.47,0.36 1.1,0.55 1.89,0.55 0.74,0 1.29,-0.14 1.67,-0.42 0.37,-0.3 0.56,-0.66 0.56,-1.11 z" id="path76"></path>
		<path class="st3" d="m 193.81,148.03 h -9.04 v 9.06 h -1.64 v -19.38 h 12 v 1.38 h -10.37 v 7.55 h 9.04 v 1.39 z" id="path78"></path>
		<path class="st3" d="m 203.31,144.05 c -0.34,-0.06 -0.7,-0.09 -1.08,-0.09 -0.99,0 -1.83,0.28 -2.52,0.83 -0.69,0.55 -1.18,1.36 -1.47,2.42 v 9.89 h -1.58 v -14.4 h 1.56 l 0.03,2.29 c 0.84,-1.7 2.2,-2.56 4.06,-2.56 0.44,0 0.79,0.06 1.05,0.17 z" id="path80"></path>
		<path class="st3" d="m 210.09,154.8 4.21,-12.11 h 1.72 l -6.15,16.85 -0.32,0.75 c -0.79,1.75 -2.01,2.62 -3.66,2.62 -0.38,0 -0.79,-0.06 -1.22,-0.19 l -0.01,-1.32 0.83,0.08 c 0.78,0 1.41,-0.19 1.9,-0.58 0.49,-0.39 0.89,-1.05 1.23,-1.99 l 0.71,-1.94 -5.43,-14.28 h 1.74 z" id="path82"></path>
		<path class="st3" d="m 226.55,153.43 c 0,-0.79 -0.32,-1.42 -0.95,-1.9 -0.63,-0.48 -1.59,-0.85 -2.87,-1.12 -1.28,-0.27 -2.27,-0.58 -2.97,-0.93 -0.7,-0.35 -1.23,-0.78 -1.57,-1.28 -0.34,-0.51 -0.51,-1.12 -0.51,-1.84 0,-1.14 0.47,-2.07 1.42,-2.81 0.95,-0.74 2.16,-1.11 3.65,-1.11 1.61,0 2.89,0.4 3.87,1.19 0.98,0.79 1.46,1.83 1.46,3.11 h -1.6 c 0,-0.84 -0.35,-1.54 -1.06,-2.1 -0.71,-0.56 -1.59,-0.84 -2.67,-0.84 -1.05,0 -1.89,0.23 -2.52,0.7 -0.63,0.47 -0.95,1.07 -0.95,1.82 0,0.72 0.26,1.28 0.79,1.67 0.53,0.39 1.49,0.76 2.89,1.08 1.4,0.33 2.44,0.68 3.14,1.05 0.7,0.37 1.21,0.82 1.55,1.34 0.34,0.52 0.51,1.16 0.51,1.9 0,1.22 -0.49,2.19 -1.47,2.91 -0.98,0.72 -2.26,1.09 -3.84,1.09 -1.68,0 -3.04,-0.41 -4.08,-1.22 -1.04,-0.81 -1.56,-1.84 -1.56,-3.08 h 1.6 c 0.06,0.93 0.46,1.66 1.18,2.18 0.72,0.52 1.68,0.78 2.87,0.78 1.11,0 2,-0.24 2.69,-0.73 0.66,-0.5 1,-1.12 1,-1.86 z" id="path84"></path>
		<path class="st3" d="m 233.51,157.09 h -1.6 v -20.44 h 1.6 z" id="path86"></path>
		<path class="st3" d="m 246.92,157.09 c -0.16,-0.45 -0.26,-1.12 -0.31,-2.01 -0.56,0.73 -1.27,1.29 -2.14,1.68 -0.87,0.39 -1.78,0.59 -2.75,0.59 -1.38,0 -2.5,-0.39 -3.36,-1.16 -0.86,-0.77 -1.28,-1.75 -1.28,-2.93 0,-1.4 0.58,-2.51 1.75,-3.33 1.17,-0.82 2.79,-1.22 4.88,-1.22 h 2.89 v -1.64 c 0,-1.03 -0.32,-1.84 -0.95,-2.43 -0.63,-0.59 -1.56,-0.89 -2.77,-0.89 -1.11,0 -2.03,0.28 -2.75,0.85 -0.73,0.57 -1.09,1.25 -1.09,2.05 l -1.6,-0.01 c 0,-1.14 0.53,-2.14 1.6,-2.97 1.06,-0.84 2.37,-1.26 3.93,-1.26 1.61,0 2.87,0.4 3.8,1.2 0.93,0.8 1.4,1.92 1.43,3.36 v 6.81 c 0,1.39 0.15,2.44 0.44,3.13 v 0.16 h -1.72 z m -5,-1.15 c 1.06,0 2.02,-0.26 2.85,-0.77 0.84,-0.51 1.45,-1.2 1.83,-2.06 v -3.17 h -2.85 c -1.59,0.02 -2.83,0.31 -3.73,0.87 -0.9,0.56 -1.34,1.34 -1.34,2.32 0,0.81 0.3,1.48 0.9,2.01 0.6,0.54 1.38,0.8 2.34,0.8 z m 5.26,-15.73 v 0.13 h -1.48 l -2.24,-2.43 -2.22,2.43 h -1.45 v -0.17 l 3.17,-3.39 h 1.01 z" id="path88"></path>
		<path class="st3" d="m 253.95,142.69 0.05,2.46 c 0.54,-0.89 1.22,-1.56 2.02,-2.03 0.81,-0.47 1.7,-0.7 2.67,-0.7 1.54,0 2.69,0.43 3.45,1.3 0.75,0.87 1.13,2.17 1.14,3.91 v 9.45 h -1.58 v -9.46 c -0.01,-1.29 -0.28,-2.24 -0.82,-2.87 -0.54,-0.63 -1.4,-0.95 -2.58,-0.95 -0.98,0 -1.86,0.31 -2.62,0.92 -0.76,0.62 -1.32,1.45 -1.68,2.5 v 9.86 h -1.58 v -14.4 h 1.53 z" id="path90"></path>
	</g>
</g>
</svg>
